<?xml version="1.0" encoding="UTF-8" standalone="no"?>
<svg
   id="Layer_1"
   data-name="Layer 1"
   viewBox="0 0 303.42236 227.6986"
   version="1.1"
   sodipodi:docname="anvil_logo_inverted2.svg"
   width="303.42236"
   height="227.69859"
   inkscape:version="1.1.1 (3bf5ae0d25, 2021-09-20)"
   xmlns:inkscape="http://www.inkscape.org/namespaces/inkscape"
   xmlns:sodipodi="http://sodipodi.sourceforge.net/DTD/sodipodi-0.dtd"
   xmlns="http://www.w3.org/2000/svg"
   xmlns:svg="http://www.w3.org/2000/svg"
   xmlns:rdf="http://www.w3.org/1999/02/22-rdf-syntax-ns#"
   xmlns:cc="http://creativecommons.org/ns#"
   xmlns:dc="http://purl.org/dc/elements/1.1/">
  <defs
     id="defs6402" />
  <sodipodi:namedview
     id="namedview6400"
     pagecolor="#ffffff"
     bordercolor="#666666"
     borderopacity="1.0"
     inkscape:pageshadow="2"
     inkscape:pageopacity="0.0"
     inkscape:pagecheckerboard="0"
     showgrid="false"
     fit-margin-top="0"
     fit-margin-left="0"
     fit-margin-right="0"
     fit-margin-bottom="0"
     inkscape:zoom="2"
     inkscape:cx="134.25"
     inkscape:cy="113.75"
     inkscape:window-width="1920"
     inkscape:window-height="1001"
     inkscape:window-x="2091"
     inkscape:window-y="-9"
     inkscape:window-maximized="1"
     inkscape:current-layer="Layer_1" />
  <title
     id="title6393">anvil</title>
  <path
     d="m 202.79212,160.52207 c -5.32,-2.94 -11.84,-3.7 -17.84,-5.39 l -0.69,1.14 a 47.17,47.17 0 0 0 26.84,15.6 c -2.38,-4.24 -4.54,-9.27 -8.31,-11.35 z"
     id="path6395"
     style="fill:#ffffff" />
  <path
     d="m 281.83212,70.462074 c -3.59,-0.35 -7.17,-1 -10.76,-1 -20.32,0 -40.64,0.26 -61,0.36 a 22.63,22.63 0 0 1 -5.38,-0.65 69.46,69.46 0 0 1 -9.69,-2.81 c -1.52,-0.62 -3.49,-2.12 -3.77,-3.52 -1.68,-8.43 -1.54,-8.48 -9.93,-8.49 H 41.912123 c -0.84,0 -1.67,0.05 -2.5,0 -3.38,-0.15 -5.06,1.77 -5.09,4.82 -0.05,5.31 -0.25,10.71 0.55,15.92 1.1,7.14 4.36,9.88 11.62,10.89 13.72,1.91 27.32,4.23 40.09,9.92 12.2,5.439996 22.399997,13.129996 28.229997,25.589996 9.92,21.19 -1.91,42.05 -23.049997,50.14 5.56,-4.8 11.309997,-8.38 13.069997,-15.33 -5.389997,1.68 -11.429997,2.8 -14.999997,6.38 -13.84,13.81 -13.55,14.1 -13.37,33.63 0,0.34 0,0.67 0,1 -0.4,3.72 1.33,5 5,4.92 8.49,-0.16 17,-0.17 25.479997,0 a 11.76,11.76 0 0 0 8.88,-3.37 c 16.77,-15.13 46.82,-14.56 62.8,0.87 a 7.64,7.64 0 0 0 4.69,2 c 9,0.2 18,0 27,0.13 2.95,0 4.28,-1 4.21,-4 -0.12,-5.32 -0.12,-10.66 0,-16 0.07,-3.34 -1.49,-5.31 -4.52,-6.33 -1.9,-0.63 -3.82,-1.19 -5.69,-1.87 -11.52,-4.16 -21.07,-10.75 -26.51,-22.13 -4.94,-10.35 -0.33,-24.12 9.5,-27.46 a 110.45,110.45 0 0 1 20.43,-5.1 q 40.29,-5.55 67.48,-35.549996 c 3,-3.32 5.24,-7.39 7.83,-11.12 z m -89.7,107.399996 a 45.83,45.83 0 0 1 5.65,0 c -4.9,1.28 -9.3,1.37 -12.23,3.49 -2.93,2.12 -4.05,6.15 -5.66,8.82 -2.95,-18.68 -16.31,-27.22 -34.71,-28.5 -14.39,-1 -28.59,11.61 -36,29.82 2.15,-12.58 -7.06,-11.73 -14.799997,-13.06 14.519997,1.7 24.319997,-5.89 33.079997,-15.68 a 26.88,26.88 0 0 1 2.93,-2.71 c 10.71,-8.92 18.95,-9.28 30.1,-0.87 a 78.63,78.63 0 0 1 10.57,9.83 c 5.77,6.19 12.21,10.21 21.07,8.86 z m -8,-105.909996 c -2.49,-6.21 -6.64,-6.14 -10.89,-6.14 -41.26,0 -82.529997,0 -123.789997,0.06 -2.62,0 -5.23,1.25 -7.84,1.92 -1.29,-6.44 -0.92,-7 5.62,-7 H 184.13212 Z m 14,11.43 c -0.26,1.37 -2.5,2.37 -3.83,3.55 -1,-1.28 -2.71,-2.47 -2.9,-3.85 -0.44,-3.21 -0.14,-6.52 -0.14,-10 l 7.05,0.66 c 0.05,3.24 0.45,6.53 -0.11,9.64 z m 40.74,2.7 a 125.28,125.28 0 0 1 -19.63,3.44 c -7.83,0.6 -12.11,4.65 -14.24,11.729996 -0.29,0.95 -0.68,1.85 -0.91,2.46 0,-7.649996 -0.21,-15.599996 0.25,-23.509996 0.06,-1.06 3.46,-2.71 5.34,-2.76 12.8,-0.3 25.62,-0.1 38.42,-0.36 7.63,-0.15 15.24,-0.84 22.86,-1.28 l 0.41,1.7 c -10.78,2.88 -21.56,5.96 -32.45,8.58 z"
     id="path6397"
     style="fill:#ffffff" />
  <ellipse
     style="fill:#ffffff;fill-opacity:0;fill-rule:evenodd;stroke:#ffffff;stroke-width:3;stroke-miterlimit:10;stroke-dasharray:none;stroke-opacity:1;paint-order:stroke fill markers"
     id="path7538"
     cx="151.71118"
     cy="113.8493"
     rx="150.21118"
     ry="112.3493" />
  <text
     xml:space="preserve"
     style="font-size:32px;line-height:1.25;font-family:sans-serif;fill:#ff0000"
     x="124.26212"
     y="116.85207"
     id="text14649"><tspan
       sodipodi:role="line"
       id="tspan14647"
       x="124.26212"
       y="116.85207"
       style="font-style:normal;font-variant:normal;font-weight:bold;font-stretch:normal;font-family:sans-serif;-inkscape-font-specification:'sans-serif Bold'">&lt;/&gt;</tspan></text>
  <metadata
     id="metadata21353">
    <rdf:RDF>
      <cc:Work
         rdf:about="">
        <dc:title>anvil</dc:title>
      </cc:Work>
    </rdf:RDF>
  </metadata>
</svg>
